PathFileType	4	(X/Y/Z)	C:/Users/opensim2020/Desktop/walking_exp_matlab/subject06_walking16_straight_01.trc																																																																																																																																																							
DataRate	CameraRate	NumFrames	NumMarkers	Units	OrigDataRate	OrigDataStartFrame	OrigNumFrames																																																																																																																																																			
100	100	8	51	mm	100	995	333																																																																																																																																																			
Frame#	Time	LFHD			RFHD			LBHD			RBHD			C7			T10			CLAV			STRN			RBAK			LSHO			LUPA			LELB			LFRM			LWRA			LWRB			LFIN			RSHO			RUPA			RELB			RFRM			RWRA			RWRB			RFIN			LASI			RASI			LPSI			RPSI			LTHI			LKNE			LTIB			LANK			LHEE			LTOE			RTHI			RKNE			RTIB			RANK			RHEE			RTOE			*39			*40			*41			*42			*43			*44			*45			*46			*47			*48			*49			*50		
		X1	Y1	Z1	X2	Y2	Z2	X3	Y3	Z3	X4	Y4	Z4	X5	Y5	Z5	X6	Y6	Z6	X7	Y7	Z7	X8	Y8	Z8	X9	Y9	Z9	X10	Y10	Z10	X11	Y11	Z11	X12	Y12	Z12	X13	Y13	Z13	X14	Y14	Z14	X15	Y15	Z15	X16	Y16	Z16	X17	Y17	Z17	X18	Y18	Z18	X19	Y19	Z19	X20	Y20	Z20	X21	Y21	Z21	X22	Y22	Z22	X23	Y23	Z23	X24	Y24	Z24	X25	Y25	Z25	X26	Y26	Z26	X27	Y27	Z27	X28	Y28	Z28	X29	Y29	Z29	X30	Y30	Z30	X31	Y31	Z31	X32	Y32	Z32	X33	Y33	Z33	X34	Y34	Z34	X35	Y35	Z35	X36	Y36	Z36	X37	Y37	Z37	X38	Y38	Z38	X39	Y39	Z39	X40	Y40	Z40	X41	Y41	Z41	X42	Y42	Z42	X43	Y43	Z43	X44	Y44	Z44	X45	Y45	Z45	X46	Y46	Z46	X47	Y47	Z47	X48	Y48	Z48	X49	Y49	Z49	X50	Y50	Z50	X51	Y51	Z51
																																																																																																																																																										
125	1.24	-311.16925	1650.88635	-1108.26733	-323.20062	1638.62109	-977.32764	-443.41241	1598.14905	-1121.92078	-454.23224	1590.60999	-993.35144	-451.75031	1441.40222	-1064.60315	-501.40237	1114.72949	-1047.93347	-345.05225	1360.10034	-1055.45325	-312.60947	1182.80029	-1059.01624	-535.09418	1275.44861	-985.53241	-385.57452	1391.77771	-1219.30298	-349.75253	1192.45056	-1287.38403	-320.7048	1082.01343	-1296.8988	-229.36552	960.99475	-1296.42749	-128.89534	897.71973	-1232.46057	-172.83063	857.48743	-1271.34326	-96.00713	811.51135	-1257.3064	-395.60477	1396.36511	-897.2666	-450.11725	1200.35498	-812.12701	-450.20953	1078.35535	-799.75812	-449.47256	958.11414	-780.29498	-406.73456	811.8819	-804.89313	-462.79898	820.80267	-767.96259	-435.10165	740.65997	-763.34833	-331.29968	943.92181	-1153.50122	-325.33472	958.72156	-932.35449	-487.36398	980.20087	-1121.04944	-477.08075	983.36035	-952.43427	-452.18787	639.94446	-1193.53101	-491.29584	480.17136	-1168.63123	-593.66602	242.16994	-1149.99402	-637.9433	77.54794	-1095.58179	-676.76855	70.67504	-1046.16284	-500.15591	32.59711	-1108.65051	-319.67383	633.71722	-865.58264	-280.46396	518.32452	-897.07733	-236.2482	259.17441	-883.01624	-181.55602	79.42322	-920.13696	-210.12096	43.51668	-964.90991	-25.1422	83.64447	-925.12958	-415.94159	1689.39441	-1058.49304	NaN	NaN	NaN	NaN	NaN	NaN	NaN	NaN	NaN	NaN	NaN	NaN	NaN	NaN	NaN	NaN	NaN	NaN	NaN	NaN	NaN	NaN	NaN	NaN	NaN	NaN	NaN	NaN	NaN	NaN	NaN	NaN	NaN
126	1.25	-304.76871	1650.65454	-1106.46619	-316.6441	1638.21094	-975.59729	-437.0387	1597.88293	-1120.0603	-447.61496	1590.1344	-991.46503	-445.18518	1440.97754	-1062.90625	-494.26575	1114.21594	-1046.31934	-338.29913	1359.78479	-1054.05847	-305.5553	1182.54822	-1058.02295	-527.91522	1274.68408	-983.88391	-379.19592	1391.55505	-1217.79224	-343.51343	1192.2323	-1285.78064	-314.21954	1081.62244	-1295.23083	-223.71112	960.09241	-1294.95984	-124.15371	895.68414	-1231.09241	-168.0081	856.15015	-1270.38489	-91.45587	809.64026	-1256.46899	-388.62671	1395.75586	-895.70483	-442.58679	1199.58423	-810.73517	-442.77972	1077.58459	-798.46252	-441.9736	957.33221	-779.11237	-399.27103	811.11255	-803.85675	-454.96783	820.1944	-766.96008	-427.59299	739.854	-762.17737	-324.51743	943.7439	-1153.01172	-317.55444	958.05176	-931.76263	-480.36899	979.81586	-1119.53845	-469.13989	982.75952	-951.04944	-446.21976	640.00983	-1193.01038	-485.61942	480.27103	-1168.27808	-590.90479	243.35539	-1149.88367	-637.20703	79.21326	-1095.71558	-676.05554	72.84439	-1046.34802	-500.03305	32.63988	-1108.67004	-313.35867	632.37018	-864.98047	-275.14301	516.62219	-896.6239	-232.8403	257.22	-882.83661	-179.23082	77.14284	-919.89978	-208.06366	41.26282	-964.65924	-23.02736	81.15871	-925.13055	-409.49667	1689.07019	-1056.49292	NaN	NaN	NaN	NaN	NaN	NaN	NaN	NaN	NaN	NaN	NaN	NaN	NaN	NaN	NaN	NaN	NaN	NaN	NaN	NaN	NaN	NaN	NaN	NaN	NaN	NaN	NaN	NaN	NaN	NaN	NaN	NaN	NaN
127	1.26	-298.47775	1650.27087	-1104.68201	-310.05829	1637.80737	-973.68304	-430.56238	1597.62036	-1118.05969	-440.92557	1589.68677	-989.46515	-438.52744	1440.52881	-1061.0929	-487.01184	1113.80725	-1044.56152	-331.42883	1359.52881	-1052.59119	-298.33252	1182.3717	-1056.849	-520.80591	1273.94995	-982.12	-372.83524	1391.2594	-1216.04919	-336.85464	1192.0531	-1284.19275	-307.92938	1081.53333	-1293.5863	-218.02058	959.20734	-1293.84619	-119.21819	893.72943	-1229.80212	-163.11604	854.91925	-1269.59924	-87.01301	807.72174	-1255.74133	-381.63138	1395.21069	-894.03461	-435.3721	1198.88867	-809.21552	-435.25284	1076.86462	-797.11536	-434.36554	956.59521	-777.86145	-391.61237	810.38788	-802.68903	-447.25879	819.04132	-766.07623	-419.82147	739.13654	-761.13483	-317.58893	943.64502	-1152.47644	-309.41345	957.38739	-931.28278	-473.19543	979.34503	-1117.96252	-460.99976	982.25568	-949.54926	-440.10254	640.07465	-1192.52051	-479.81354	480.3996	-1167.92615	-587.9505	244.70958	-1149.86646	-636.35193	81.02101	-1095.95532	-675.39551	75.09853	-1046.5636	-500.01117	32.55861	-1108.73169	-306.93735	631.11584	-864.39465	-269.77661	515.02673	-896.09167	-229.78856	255.15086	-882.42474	-177.73143	74.69118	-919.72412	-206.9758	38.89222	-964.36658	-21.63607	78.12114	-925.10742	-402.99191	1688.63708	-1054.32434	NaN	NaN	NaN	NaN	NaN	NaN	NaN	NaN	NaN	NaN	NaN	NaN	NaN	NaN	NaN	NaN	NaN	NaN	NaN	NaN	NaN	NaN	NaN	NaN	NaN	NaN	NaN	NaN	NaN	NaN	NaN	NaN	NaN
128	1.27	-291.8916	1650.22241	-1102.74658	-303.24573	1637.42517	-971.86108	-424.11963	1597.45508	-1115.98145	-434.18555	1589.24451	-987.39868	-431.76199	1440.09753	-1059.21057	-479.46448	1113.16846	-1042.66333	-324.54437	1359.33997	-1050.99329	-291.01602	1182.2821	-1055.68347	-513.69385	1273.16797	-980.24762	-366.36407	1391.18103	-1214.5144	-330.34113	1191.89136	-1282.55139	-301.4437	1081.35815	-1291.84583	-212.44188	958.46619	-1292.51294	-114.42537	891.6416	-1228.61621	-158.51259	853.41772	-1268.76685	-82.62031	805.83038	-1255.30432	-374.50452	1394.69373	-892.27289	-428.09592	1198.26782	-807.79376	-427.58835	1076.18713	-795.68256	-426.58368	955.90533	-776.60699	-383.73135	809.7229	-801.51306	-439.81033	818.49774	-764.6347	-411.92099	738.47968	-759.95306	-310.41336	943.565	-1151.78491	-301.00861	956.87885	-930.57587	-465.80484	979.086	-1116.27637	-452.6763	981.81104	-948.03113	-433.77075	640.16321	-1192.00928	-473.82483	480.49878	-1167.61536	-584.88037	246.09955	-1149.97473	-635.51398	82.8842	-1096.30042	-674.6767	77.53051	-1046.98755	-499.9791	32.48968	-1108.83972	-300.21979	629.93439	-863.84131	-264.4234	513.409	-895.47467	-227.2805	253.00722	-882.05597	-177.11946	71.98919	-919.59387	-206.89857	36.56124	-964.11523	-21.16547	74.37592	-925.0708	-396.44522	1688.39124	-1052.10266	NaN	NaN	NaN	NaN	NaN	NaN	NaN	NaN	NaN	NaN	NaN	NaN	NaN	NaN	NaN	NaN	NaN	NaN	NaN	NaN	NaN	NaN	NaN	NaN	NaN	NaN	NaN	NaN	NaN	NaN	NaN	NaN	NaN
129	1.28	-285.39526	1650.06689	-1100.80286	-296.45135	1637.11047	-969.82501	-417.57944	1597.26184	-1113.81348	-427.47159	1588.85925	-985.13666	-424.9895	1439.63806	-1057.17236	-471.70969	1112.5614	-1040.71594	-317.46964	1359.15515	-1049.38757	-283.52368	1182.2229	-1054.31909	-506.28052	1272.41235	-978.28394	-359.92429	1390.95947	-1212.64185	-323.80222	1191.78674	-1280.76294	-294.96384	1081.24817	-1290.08777	-206.89735	957.67273	-1291.23279	-109.62619	889.51471	-1227.43396	-153.85611	852.03961	-1268.20227	-78.57985	803.69946	-1254.82153	-367.3187	1394.23596	-890.45532	-420.62003	1197.65906	-806.17267	-419.79565	1075.56531	-794.14453	-418.63049	955.22131	-775.21899	-375.67099	809.16785	-800.30219	-431.48053	817.88483	-763.4342	-403.84445	737.76935	-758.87054	-303.08575	943.43073	-1151.00403	-292.61929	956.24103	-929.87744	-458.16446	978.84814	-1114.55591	-444.22217	981.48413	-946.34601	-427.25583	640.20001	-1191.42078	-467.63477	480.51477	-1167.36731	-581.69849	247.46416	-1150.1499	-634.63214	84.82304	-1096.79199	-673.94733	80.03192	-1047.61316	-500.02481	32.30279	-1108.98901	-293.37534	628.87415	-863.14691	-258.80457	511.89755	-894.88538	-225.30579	250.79668	-881.76855	-177.2533	69.08265	-919.72235	-207.24529	34.17865	-964.1814	-21.27708	69.57364	-924.84601	-389.78979	1688.07532	-1049.84863	NaN	NaN	NaN	NaN	NaN	NaN	NaN	NaN	NaN	NaN	NaN	NaN	NaN	NaN	NaN	NaN	NaN	NaN	NaN	NaN	NaN	NaN	NaN	NaN	NaN	NaN	NaN	NaN	NaN	NaN	NaN	NaN	NaN
130	1.29	-278.78491	1650.05176	-1098.75281	-289.61386	1636.8064	-967.76495	-411.05991	1597.1283	-1111.55432	-420.5694	1588.53381	-982.91235	-418.30478	1439.22168	-1055.03442	-463.73499	1111.98267	-1038.65405	-310.42773	1359.05493	-1047.59705	-275.8317	1182.24341	-1052.96265	-498.55936	1271.56946	-976.15448	-353.49469	1390.86609	-1210.72241	-317.15723	1191.82556	-1279.18201	-288.52539	1081.14075	-1288.23145	-201.45197	956.84216	-1289.92822	-104.94753	887.26825	-1226.31348	-149.41512	850.60669	-1267.65198	-74.54269	801.4837	-1254.41602	-360.00714	1393.82007	-888.48627	-412.75681	1197.02234	-804.35663	-411.79947	1074.92847	-792.61108	-410.54117	954.5799	-773.77704	-367.63904	808.52185	-799.11377	-423.2059	816.97443	-762.38733	-395.61069	737.11615	-757.69409	-295.5304	943.34698	-1150.05164	-284.10526	955.61755	-928.94568	-450.50607	978.65546	-1112.87219	-435.77841	981.36932	-944.43152	-420.56308	640.23224	-1190.81238	-461.16605	480.48526	-1167.04565	-578.19366	248.99094	-1150.45215	-633.62054	86.91747	-1097.53271	-673.0481	82.62567	-1048.47595	-500.05066	32.13502	-1109.17444	-286.29089	627.98151	-862.30243	-253.3197	510.53232	-894.1972	-223.48477	248.81216	-882.06598	-176.577	67.65234	-920.41394	-205.99951	34.39054	-965.42749	-20.12208	63.56122	-923.60449	-383.2153	1687.85547	-1047.54761	NaN	NaN	NaN	NaN	NaN	NaN	NaN	NaN	NaN	NaN	NaN	NaN	NaN	NaN	NaN	NaN	NaN	NaN	NaN	NaN	NaN	NaN	NaN	NaN	NaN	NaN	NaN	NaN	NaN	NaN	NaN	NaN	NaN
131	1.3	-272.23676	1650.25757	-1096.62061	-282.57376	1636.88745	-965.66736	-404.44635	1597.16724	-1109.15515	-413.59381	1588.36157	-980.50616	-411.41345	1439.02588	-1052.80933	-455.71909	1111.5708	-1036.69702	-303.12061	1359.25244	-1045.77686	-268.11612	1182.4967	-1051.41882	-491.14447	1270.78369	-973.89526	-347.12775	1391.02759	-1208.88867	-310.56143	1191.7074	-1277.14636	-281.91351	1080.99133	-1286.47485	-195.96405	956.0921	-1288.66858	-100.43188	884.97833	-1225.29297	-144.87846	849.27051	-1267.18677	-70.69918	799.20966	-1254.12976	-352.61713	1393.53149	-886.4505	-404.94107	1196.45178	-802.49091	-403.6636	1074.37744	-790.90625	-402.29987	953.97717	-772.28955	-359.41287	807.92969	-797.83112	-415.37634	816.40723	-760.64355	-387.32986	736.48584	-756.46503	-287.78665	943.33228	-1149.0354	-275.78833	955.07922	-927.9599	-442.70984	978.69257	-1111.19836	-427.52197	981.65057	-942.34979	-413.46036	640.19781	-1190.00195	-454.33749	480.49478	-1166.44983	-574.56274	250.56274	-1150.62915	-632.47266	89.22472	-1098.48047	-672.20959	85.59654	-1049.67786	-499.85202	32.02635	-1109.46289	-279.31564	627.62799	-861.11133	-248.59209	509.68246	-893.09229	-220.56187	247.93056	-881.94226	-173.33093	68.17463	-919.91949	-203.6441	36.32567	-965.36072	-17.25984	59.54826	-921.66089	-376.50604	1687.85339	-1045.04211	NaN	NaN	NaN	NaN	NaN	NaN	NaN	NaN	NaN	NaN	NaN	NaN	NaN	NaN	NaN	NaN	NaN	NaN	NaN	NaN	NaN	NaN	NaN	NaN	NaN	NaN	NaN	NaN	NaN	NaN	NaN	NaN	NaN
132	1.31	-265.70135	1651.06299	-1094.41052	-275.71219	1637.49878	-963.38037	-397.76331	1597.62537	-1106.68494	-406.54895	1588.56189	-977.99951	-404.32278	1439.375	-1050.47461	-447.79608	1111.50024	-1035.18311	-295.84183	1359.74878	-1043.95081	-260.59714	1183.03162	-1049.92676	-483.60992	1270.24792	-971.68011	-340.62802	1391.47766	-1207.15027	-303.89639	1191.73364	-1275.24707	-275.53534	1080.99243	-1284.61523	-190.74181	955.39087	-1287.34717	-95.93626	882.70551	-1224.32239	-140.68396	847.94495	-1266.69409	-67.11347	797.01929	-1254.02905	-345.07684	1393.41516	-884.28772	-396.95267	1196.08655	-800.73157	-395.39914	1073.94849	-789.18134	-393.94653	953.48547	-770.72772	-350.97061	807.55157	-796.58282	-406.84479	815.992	-759.44507	-378.77054	736.03796	-755.32556	-280.09866	943.5119	-1147.95166	-267.32806	955.1391	-926.9184	-434.80249	978.92676	-1109.82959	-419.26929	982.54968	-940.78149	-405.99576	640.20898	-1189.08496	-447.04095	480.62006	-1165.79834	-570.461	252.40915	-1150.75684	-631.09082	91.87202	-1099.47693	-671.11255	88.98225	-1050.927	-499.64743	32.02863	-1109.67932	-272.84641	628.26947	-859.63983	-244.27643	509.92593	-890.47791	-216.18263	248.45767	-879.95654	-170.35829	67.72984	-918.88251	-201.39108	37.24895	-964.31989	-14.76525	57.70631	-919.70599	-369.96304	1688.32703	-1042.59814	NaN	NaN	NaN	NaN	NaN	NaN	NaN	NaN	NaN	NaN	NaN	NaN	NaN	NaN	NaN	NaN	NaN	NaN	NaN	NaN	NaN	NaN	NaN	NaN	NaN	NaN	NaN	NaN	NaN	NaN	NaN	NaN	NaN
